Patient4_TMGait_0pt4_01_right_16_EMG.mot
version=1
nRows=34
nColumns=33
inDegrees=no
endheader
time	1LAddLong	2LGlutMax	3LGlutMed	4LIliopsoas	5LSemiMemb	6LBicFemLong	7LRecFem	8LVastMed	9LVastLat	10LGasMed	11LTibAnt	12lTibPost	13LPeroneusLong	14LSol	15LExtDigLong	16LFlexDigLong	17RAddLong	18RGlutMax	19RGlutMed	20RIliopsoas	21RSemiMemb	22RBicFemLong	23RRecFem	24RVastMed	25RVastLat	26RGasMed	27RTibAnt	28RTibPost	29RPeroneusLong	30RSol	31RExtDigLong	32RFlexDigLong
21.092	-0.00412	0.18448	0.016632	0.006104	0.004272	0.000763	0.35187	0.010376	0.003357	0.017853	0.29968	-0.004425	-0.032196	0.049744	-0.66773	-0.014954	-0.024719	-0.96512	-0.63034	0.054016	0.1384	0.046387	-0.23697	0.17258	0.030212	-0.11917	0.055237	0.046844	0.33676	-0.18005	-0.002441	-0.017853
21.093	-0.002441	0.21408	0.059052	0.012207	-0.001373	-0.019226	0.31113	0.006866	0.002289	0.00824	0.029144	-0.002594	0.02655	0.044403	-0.66376	-0.009308	0.018768	-0.81116	-0.53345	0.023041	0.18936	-0.032654	-0.18646	0.13626	0.090942	-0.1622	0.02594	0.010376	0.49683	-0.42129	-0.003967	-0.033417
21.094	-0.009766	0.24811	0.072327	-0.002441	0.006409	-0.000763	0.30563	0.004578	0.019226	0.007629	-0.14313	0.000458	0.012817	0.054016	-0.21942	-0.001373	0.042267	-0.65155	-0.14664	-0.017548	0.016632	0.077209	-0.050201	0.036621	0.098114	-0.098877	0.074158	-0.0383	0.15106	-0.58991	-0.001678	-0.03006
21.095	0	0.27756	0.010071	-0.037231	0.004883	-0.031586	0.27878	0.011902	0.016632	0.073853	0.16251	-0.001678	-0.077515	-0.033417	-0.048828	-0.001068	-0.013885	-0.72922	-0.33081	0.03418	-0.20859	0.14832	0.035248	0.002594	0.098419	-0.095062	0.035706	-0.001221	-0.006409	-0.35278	-0.001831	-0.022278
21.096	0.002594	0.2385	-0.001068	-0.022278	0.002594	-0.038147	0.29327	0.014954	0.03006	0.051727	0.2475	-0.010071	-0.080261	0.042419	0.14618	0.005188	-0.036316	-1.0185	-0.40619	0.025787	0.103	0.050354	-0.009766	0.003662	0.086975	0.048218	-0.023193	-0.073395	-0.15869	-0.49622	-0.001831	-0.015869
21.097	-0.00061	0.23392	-0.042419	0.000916	0.003204	-0.039978	0.26169	0.007324	0.037994	0.022583	0.07782	-0.003815	-0.01709	0.13275	0.16571	0.010834	0.004578	-1.1612	-0.75546	-0.039825	0.10925	-0.11917	0.027466	0.080719	0.054016	0.21637	0.023651	0.02121	-0.35355	-0.62408	-0.002747	-0.01297
21.098	-0.000458	0.26154	-0.019989	0.005188	0.010071	-0.047455	0.26871	0.010529	0.046844	0.02533	-0.010681	-0.005493	0.004272	0.1236	0.48126	0.006104	0.016785	-1.1653	-0.51834	0.012512	-0.19577	-0.088959	0.028839	0.14053	0.052643	0.009003	0.005341	-0.02533	-0.25665	-0.19577	-0.000458	-0.022888
21.099	0.004272	0.25146	-0.027161	-0.009918	0.010529	-0.027771	0.26032	0.016174	0.06012	0.022736	0.058899	-0.001068	-0.029144	0.039825	0.36529	0.013733	0.005646	-1.0243	-0.75485	0.028839	-0.049133	-0.029602	-0.013885	0.087433	0.048218	-0.21606	0.014191	-0.01709	-0.068817	-0.098572	-0.00351	-0.014496
21.1	0.002289	0.2861	0.015106	-0.014191	0.020599	-0.040588	0.24185	0.014801	0.056	0.059509	-0.026703	-0.000153	-0.15015	0.055695	0.69092	-0.010986	-0.011292	-0.86609	-0.551	-0.026703	0.32272	0.06134	0.017395	0.11597	0.045013	-0.23941	0.34103	-0.00473	-0.007935	-0.42969	-0.000153	-0.014191
21.101	0.001831	0.31158	0.019226	-0.027466	0.012512	-0.018768	0.21668	0.011749	0.048218	0.022583	0.11017	0.001373	-0.095825	0.06424	0.018616	-0.013885	-0.02655	-0.69809	-0.50903	-0.040436	0.092468	0.069733	0.014801	0.12619	0.035248	-0.1033	0.60959	-0.067749	0.001221	-0.066223	0.001984	-0.019684
21.102	0.006256	0.31235	0.028687	-0.026855	-0.001068	-0.006409	0.25024	0.013123	0.043945	-0.008698	0.020142	-0.007477	0.00351	-0.006409	-0.7309	-0.018463	-0.062866	-0.681	-0.215	-0.093842	-0.053101	0.065308	0.059509	0.19058	0.036316	0.09964	0.96039	0.011902	0.00885	0.53238	-0.001068	-0.027771
21.103	0.00351	0.28702	0.039215	0.002289	0.009308	-0.013733	0.26672	0.011139	0.045319	0.004578	-0.12299	-0.000763	-0.023956	-0.027771	-0.55695	-0.013885	-0.028076	-0.75546	-0.018005	-0.090179	-0.085449	0.032501	0.033264	0.074615	0.004425	0.14023	0.91675	0.14267	-0.21545	1.004	-0.001373	-0.036316
21.104	0.010223	0.30746	0.049286	0.023346	-0.004578	0.004425	0.28336	0.010071	0.049438	0.012512	-0.24307	0.001068	0.03067	-0.10193	-0.26794	-0.009155	0.011444	-0.49896	0.46707	-0.10086	-0.099792	0.012817	0.11093	-0.039825	-0.00351	0.086212	0.03418	0.054932	-0.20386	1.0718	-0.000916	-0.021515
21.105	0.003815	0.32654	0.023956	0.010681	0.003357	0.00885	0.27802	0.006714	0.042725	0.058441	-0.26672	0.000763	0.009766	-0.027924	0.029297	0.007935	0.026245	-0.383	0.012207	0.051575	0.039673	-0.045471	0.22324	-0.075073	0.010681	0.047607	-0.73883	0.008698	0.012054	0.5365	-0.002289	-0.011902
21.106	0.008087	0.28488	0.045776	0.00473	-0.003967	0.028534	0.28519	0.004425	0.040436	0.064392	-0.056152	0.003052	-0.050354	0.028534	-0.11078	0.001526	0.03891	-0.4097	-0.62332	0.13702	0.20905	-0.12726	0.31189	-0.088959	-0.02594	0.054321	-0.82825	0.10681	0.043488	0.022736	-0.005341	-0.014343
21.107	0.008698	0.24887	0.016937	0.005341	0.002289	0.011292	0.31021	0.009155	0.018158	0.058441	0.2829	0.001526	-0.07019	-0.028839	-0.25879	-0.001373	0.018463	-0.35446	-0.99838	0.071106	-0.010223	-0.10635	0.1915	0.018768	-0.032501	0.063934	-0.46326	0.031891	0.14725	-0.84351	-0.003357	-0.020294
21.108	0.011292	0.26321	-0.011597	0.007782	0.007477	0.02121	0.31433	0.007019	0.018005	0.03952	0.18463	0.007935	-0.08194	0.089722	-0.2356	0.009613	-0.016022	-0.16617	-0.11643	0.032196	-0.19486	-0.051117	0.048523	0.024414	-0.050507	0.065002	-0.40756	-0.081329	0.24963	-1.2645	-0.00473	-0.01358
21.109	0.007019	0.31006	-0.068207	-0.021973	0.000305	0.027771	0.28885	0.012054	0.002747	0.011292	-0.28564	0.008392	-0.024567	0.12802	-0.30548	0.003815	-0.037842	-0.019531	0.16434	-0.031738	-0.01709	-0.084534	-0.14374	-0.046234	-0.080109	0.038605	-0.8902	-0.057983	0.28656	-0.83603	-0.003815	-0.010071
21.11	0.007019	0.2829	-0.11643	-0.042419	0.005035	0.02655	0.25162	0.007172	-0.012054	0.035553	0.033417	-0.001068	-0.077972	0.1561	0.071716	0.000458	-0.005188	0.043488	0.13565	-0.081177	0.021362	-0.09201	-0.29556	-0.06546	-0.040894	0.063019	-0.81543	-0.035706	0.015564	-0.33661	-0.00412	-0.006104
21.111	0.005341	0.24597	-0.21011	-0.016174	0	0.001373	0.15625	0.006714	-0.024414	0.033417	-0.03418	-0.000305	-0.12741	0.084076	0.56992	-0.00061	0.012512	0.10834	0.20371	-0.048828	-0.00885	-0.11688	-0.26596	-0.033722	-0.005188	0.075684	-0.22507	-0.005188	-0.48569	-0.34683	-0.004578	-0.011139
21.112	0.007172	0.19455	-0.18158	-0.016479	-0.008392	0.007935	0.14984	0.014343	-0.029907	-0.007019	0.000763	-0.005798	-0.037994	0.044861	0.74051	0.003357	0.022888	0.18631	0.12177	0.009918	-0.076599	-0.17364	-0.11643	0.019836	-0.012817	0.018311	-0.14374	0.0914	0.22614	-0.26443	-0.00061	-0.005188
21.113	-0.001526	0.12665	-0.12161	-0.013123	-0.008087	-0.004272	0.17899	0.005951	-0.055389	0.007324	-0.021362	0.000153	0.034943	0.048981	0.37827	0.007324	0.015411	0.18524	0.13626	0.024567	-0.25757	-0.18021	0.027313	0.042267	-0.024872	-0.050964	-0.36865	0.036774	0.38284	0.33417	-0.004578	-0.005188
21.114	0.003052	0.15427	-0.15701	0.005341	-0.002289	-0.014954	0.19272	0.008392	-0.074463	0.018768	-0.1268	0.005646	0.023041	0.010681	0.014648	0.000916	0.014648	0.27115	-0.028992	0.038757	-0.31967	-0.13199	0.008392	-0.046387	-0.030975	-0.094757	-0.401	-0.31998	0.46753	0.34286	-0.003204	-0.010223
21.115	-0.001984	0.21851	-0.15503	0.00946	0.001068	-0.015106	0.22217	0.005188	-0.083923	0.013428	-0.12161	-0.003052	-0.033722	0.045013	0.18982	-0.004883	0.006104	0.56076	0.1152	0.075989	-0.12299	-0.15564	-0.007172	-0.014496	0.014496	-0.089722	-0.29327	-0.10605	0.71228	0.75775	-0.00824	-0.002747
21.116	-0.031738	0.21515	-0.076904	0.048828	0.010071	-0.037384	0.19882	0.003967	-0.097351	0.004425	-0.090179	0.001831	-0.060272	0.10529	-0.039978	-0.002899	0.007324	0.63919	-0.087433	0.068665	0.17716	-0.055542	-0.031281	-0.010529	0.053711	-0.072937	-0.041351	0.093842	0.42709	1.6385	0.003662	-0.002747
21.117	-0.034637	0.19348	0.015869	0.018921	0.007629	-0.002747	0.19531	0.006104	-0.11154	-0.019226	-0.016479	-0.001221	0.016327	0.12039	-0.22797	0.005493	0.021515	0.71213	0.035858	-0.004883	0.16022	-0.000458	0.018311	-0.093689	0.031586	-0.004272	0.1387	0.18936	0.15686	2.4258	-0.004578	-0.001221
21.118	0.004883	0.22766	0.008087	0.014954	0.005035	-0.00351	0.19913	0.012512	-0.12604	0.013275	0.1062	-0.005798	0.012207	0.070038	-0.78522	-0.004883	0.009308	0.84396	0.2565	-0.15015	-0.10361	-0.000153	-0.007019	-0.052643	0.01709	0.0177	0.10284	0.039063	-0.089874	2.3611	-0.003052	0.005646
21.119	-0.012512	0.17059	0.007782	0.032043	0.012512	-0.023346	0.18631	0.015411	-0.1358	0.036011	0.27847	-0.000458	-0.056152	0.040894	0.10376	0.001373	0.005188	0.89218	-0.10452	-0.25391	-0.15533	-0.030823	0.0737	-0.003967	0.006714	-0.001831	0.016174	-0.29465	-0.075531	0.95642	-0.003204	0.00946
21.12	0.02243	0.15182	-0.061951	-0.000916	0.008087	-0.040894	0.15381	0.008392	-0.13275	0.056305	0.28763	-0.000763	-0.092316	0.00824	-0.17792	-0.014191	0.014648	0.95398	-0.103	-0.18036	-0.055389	-0.077057	0.11276	0.002136	-0.028839	-0.058746	-0.079498	-0.36057	-0.2327	0.15579	-0.003357	0.004425
21.121	0.009003	0.13733	-0.10452	-0.004578	0.006104	-0.046844	0.12985	0.01236	-0.12894	0.03952	0.1294	-0.008392	-0.056152	-0.020599	0.99945	-0.014648	0.009155	0.97672	-0.56885	0.001068	0.14114	0.072784	0.090179	-0.00946	-0.034943	-0.087891	0.095367	-0.33447	-0.51849	-0.44235	-0.002594	-0.003204
21.122	0.004272	0.16113	-0.077667	0.00473	0.010681	-0.040436	0.18616	0.010223	-0.12726	0.018311	0.058594	-0.002289	-0.009766	0.042572	0.55649	0.007935	0.001678	1.1197	-1.6142	0.17593	0.13062	-0.013275	0.067749	0.030518	-0.050659	0.00473	0.26962	0.1001	-0.39276	-1.3385	0.000153	-0.011292
21.123	0.010834	0.17105	-0.073242	0.010376	0.006104	-0.019073	0.24246	0.009003	-0.12299	0.019073	0.008392	0.00473	0.00885	0.078583	-0.48019	0.001526	0.014191	1.2512	-1.7307	0.33432	0.010071	0.004883	0.10284	0.060425	-0.003967	0.004883	0.168	0.4628	-0.44876	-1.1211	0.003052	-0.00412
21.124	0.00946	0.15533	-0.094452	0.003357	-0.002594	-0.012817	0.224	0.008392	-0.12497	0.009155	-0.0383	-0.00412	0.042572	0.046234	-0.8223	-0.001984	0.013123	1.4241	-1.5994	0.29373	-0.082245	0.00824	0.14389	0.010986	0.019531	0.017242	0.38483	0.40985	-0.34058	-0.48737	0	-0.006104
21.125	0.019836	0.14481	-0.10193	-0.000153	-0.000153	-0.025177	0.18265	0.009155	-0.11643	0.014648	-0.11688	-0.000153	-0.007782	0.024414	-0.63538	-0.018616	0.030212	1.4378	1.0439	-0.024567	-0.087891	-0.023499	0.067444	0.004272	0.04837	0.029755	-0.046844	0.15686	0.22553	-0.29144	-0.002136	0.003357
